<?xml version="1.0" encoding="utf-8"?>
<!DOCTYPE svg PUBLIC "-//W3C//DTD SVG 1.1//EN" "http://www.w3.org/Graphics/SVG/1.1/DTD/svg11.dtd">
<svg version="1.1" id="Layer_1" xmlns="http://www.w3.org/2000/svg" xmlns:xlink="http://www.w3.org/1999/xlink" x="0px" y="0px"
width="1155px" height="1155px" viewBox="0 0 1155 1155" enable-background="new 0 0 1155 1155" xml:space="preserve">
<rect x="0" y="0" width="1155" height="1155" fill="rgb(255,255,255)" /><g transform="translate(70,70)"><g transform="translate(280,0) scale(2.5,2.5)"><g transform="" style="fill: rgb(0, 0, 0);">
    <path d="M14,14H0c0,0,4.38-9.15,0.55-14C0.55,0,14-0.24,14,14z"/>
</g></g><g transform="translate(350,0) scale(2.5,2.5)"><g transform="" style="fill: rgb(0, 0, 0);">
    <path d="M13.999,0v14c0,0-9.151-4.381-14-0.551C-0.001,13.449-0.242,0,13.999,0z"/>
</g></g><g transform="translate(385,0) scale(2.5,2.5)"><g transform="" style="fill: rgb(0, 0, 0);">
    <path d="M13.999,13.999H0V0.028v-0.029h3.43C9.269-0.001,13.999,6.267,13.999,13.999z"/>
</g></g><g transform="translate(525,0) scale(2.5,2.5)"><g transform="" style="fill: rgb(0, 0, 0);">
    <path d="M13.999,0v14c0,0-9.151-4.381-14-0.551C-0.001,13.449-0.242,0,13.999,0z"/>
</g></g><g transform="translate(560,0) scale(2.5,2.5)"><g transform="" style="fill: rgb(0, 0, 0);">
    <path d="M13.999,13.999H0V0.028v-0.029h3.43C9.269-0.001,13.999,6.267,13.999,13.999z"/>
</g></g><g transform="translate(630,0) scale(2.5,2.5)"><g transform="" style="fill: rgb(0, 0, 0);">
    <path d="M14,14H0c0,0,4.38-9.15,0.55-14C0.55,0,14-0.24,14,14z"/>
</g></g><g transform="translate(280,35) scale(0.35,0.35)"><g transform="" style="fill: rgb(0, 0, 0);">
<rect width="100" height="100"/>
</g></g><g transform="translate(385,35) scale(2.5,2.5)"><g transform="" style="fill: rgb(0, 0, 0);">
    <path d="M-0.001,0l14,0c0,0-4.381,9.151-0.551,14C13.448,14-0.001,14.24-0.001,0z"/>
</g></g><g transform="translate(560,35) scale(0.35,0.35)"><g transform="" style="fill: rgb(0, 0, 0);">
<rect width="100" height="100"/>
</g></g><g transform="translate(595,35) scale(0.35,0.35)"><g transform="" style="fill: rgb(0, 0, 0);">
<rect width="100" height="100"/>
</g></g><g transform="translate(630,35) scale(0.35,0.35)"><g transform="" style="fill: rgb(0, 0, 0);">
<rect width="100" height="100"/>
</g></g><g transform="translate(665,35) scale(2.5,2.5)"><g transform="" style="fill: rgb(0, 0, 0);">
    <path d="M0,14V0c0,0,9.15,4.38,14,0.55C14,0.55,14.24,14,0,14z"/>
</g></g><g transform="translate(280,70) scale(2.5,2.5)"><g transform="" style="fill: rgb(0, 0, 0);">
    <path d="M-0.001,0l14,0c0,0-4.381,9.151-0.551,14C13.448,14-0.001,14.24-0.001,0z"/>
</g></g><g transform="translate(350,70) scale(0.07,0.07)"><g transform="" style="fill: rgb(0, 0, 0);">
<path d="M250,0c138.077,0,250,111.93,250,250c0,138.077-111.923,250-250,250C111.93,500,0,388.077,0,250C0,111.93,111.93,0,250,0z"
	/>
</g></g><g transform="translate(420,70) scale(2.5,2.5)"><g transform="" style="fill: rgb(0, 0, 0);">
    <path d="M14,14H0c0,0,4.38-9.15,0.55-14C0.55,0,14-0.24,14,14z"/>
</g></g><g transform="translate(525,70) scale(2.5,2.5)"><g transform="" style="fill: rgb(0, 0, 0);">
    <path d="M13.999,0v14c0,0-9.151-4.381-14-0.551C-0.001,13.449-0.242,0,13.999,0z"/>
</g></g><g transform="translate(560,70) scale(0.35,0.35)"><g transform="" style="fill: rgb(0, 0, 0);">
<rect width="100" height="100"/>
</g></g><g transform="translate(630,70) scale(2.5,2.5)"><g transform="" style="fill: rgb(0, 0, 0);">
    <path d="M-0.001,0l14,0c0,0-4.381,9.151-0.551,14C13.448,14-0.001,14.24-0.001,0z"/>
</g></g><g transform="translate(700,70) scale(2.5,2.5)"><g transform="" style="fill: rgb(0, 0, 0);">
    <path d="M14,14H0c0,0,4.38-9.15,0.55-14C0.55,0,14-0.24,14,14z"/>
</g></g><g transform="translate(420,105) scale(0.35,0.35)"><g transform="" style="fill: rgb(0, 0, 0);">
<rect width="100" height="100"/>
</g></g><g transform="translate(560,105) scale(0.35,0.35)"><g transform="" style="fill: rgb(0, 0, 0);">
<rect width="100" height="100"/>
</g></g><g transform="translate(595,105) scale(2.5,2.5)"><g transform="" style="fill: rgb(0, 0, 0);">
    <path d="M0,14V0c0,0,9.15,4.38,14,0.55C14,0.55,14.24,14,0,14z"/>
</g></g><g transform="translate(665,105) scale(2.5,2.5)"><g transform="" style="fill: rgb(0, 0, 0);">
    <path d="M13.999-0.001v14H0.029H0v-3.431C0,4.729,6.267-0.001,13.999-0.001z"/>
</g></g><g transform="translate(700,105) scale(2.5,2.5)"><g transform="" style="fill: rgb(0, 0, 0);">
    <path d="M0,14V0h13.971H14v3.43C14,9.27,7.732,14,0,14z"/>
</g></g><g transform="translate(280,140) scale(0.07,0.07)"><g transform="" style="fill: rgb(0, 0, 0);">
<path d="M250,0c138.077,0,250,111.93,250,250c0,138.077-111.923,250-250,250C111.93,500,0,388.077,0,250C0,111.93,111.93,0,250,0z"
	/>
</g></g><g transform="translate(350,140) scale(2.5,2.5)"><g transform="" style="fill: rgb(0, 0, 0);">
    <path d="M14,14H0c0,0,4.38-9.15,0.55-14C0.55,0,14-0.24,14,14z"/>
</g></g><g transform="translate(420,140) scale(0.35,0.35)"><g transform="" style="fill: rgb(0, 0, 0);">
<rect width="100" height="100"/>
</g></g><g transform="translate(490,140) scale(2.5,2.5)"><g transform="" style="fill: rgb(0, 0, 0);">
    <path d="M13.999,0v14c0,0-9.151-4.381-14-0.551C-0.001,13.449-0.242,0,13.999,0z"/>
</g></g><g transform="translate(525,140) scale(0.35,0.35)"><g transform="" style="fill: rgb(0, 0, 0);">
<rect width="100" height="100"/>
</g></g><g transform="translate(560,140) scale(0.35,0.35)"><g transform="" style="fill: rgb(0, 0, 0);">
<rect width="100" height="100"/>
</g></g><g transform="translate(630,140) scale(2.5,2.5)"><g transform="" style="fill: rgb(0, 0, 0);">
    <path d="M13.999,0v14c0,0-9.151-4.381-14-0.551C-0.001,13.449-0.242,0,13.999,0z"/>
</g></g><g transform="translate(665,140) scale(2.5,2.5)"><g transform="" style="fill: rgb(0, 0, 0);">
    <path d="M0,14V0h13.971H14v3.43C14,9.27,7.732,14,0,14z"/>
</g></g><g transform="translate(315,175) scale(2.5,2.5)"><g transform="" style="fill: rgb(0, 0, 0);">
    <path d="M13.999,0v14c0,0-9.151-4.381-14-0.551C-0.001,13.449-0.242,0,13.999,0z"/>
</g></g><g transform="translate(350,175) scale(0.35,0.35)"><g transform="" style="fill: rgb(0, 0, 0);">
<rect width="100" height="100"/>
</g></g><g transform="translate(420,175) scale(0.35,0.35)"><g transform="" style="fill: rgb(0, 0, 0);">
<rect width="100" height="100"/>
</g></g><g transform="translate(525,175) scale(2.5,2.5)"><g transform="" style="fill: rgb(0, 0, 0);">
        <path d="M0-0.001h14v13.97v0.029l-3.431,0.001C4.731,13.999,0,7.731,0-0.001z"/>
</g></g><g transform="translate(560,175) scale(0.35,0.35)"><g transform="" style="fill: rgb(0, 0, 0);">
<rect width="100" height="100"/>
</g></g><g transform="translate(700,175) scale(2.5,2.5)"><g transform="" style="fill: rgb(0, 0, 0);">
    <path d="M14,14H0c0,0,4.38-9.15,0.55-14C0.55,0,14-0.24,14,14z"/>
</g></g><g transform="translate(280,210) scale(0.07,0.07)"><g transform="" style="fill: rgb(0, 0, 0);">
<path d="M250,0c138.077,0,250,111.93,250,250c0,138.077-111.923,250-250,250C111.93,500,0,388.077,0,250C0,111.93,111.93,0,250,0z"
	/>
</g></g><g transform="translate(350,210) scale(0.35,0.35)"><g transform="" style="fill: rgb(0, 0, 0);">
<rect width="100" height="100"/>
</g></g><g transform="translate(420,210) scale(2.5,2.5)"><g transform="" style="fill: rgb(0, 0, 0);">
    <path d="M-0.001,0l14,0c0,0-4.381,9.151-0.551,14C13.448,14-0.001,14.24-0.001,0z"/>
</g></g><g transform="translate(490,210) scale(0.07,0.07)"><g transform="" style="fill: rgb(0, 0, 0);">
<path d="M250,0c138.077,0,250,111.93,250,250c0,138.077-111.923,250-250,250C111.93,500,0,388.077,0,250C0,111.93,111.93,0,250,0z"
	/>
</g></g><g transform="translate(560,210) scale(0.35,0.35)"><g transform="" style="fill: rgb(0, 0, 0);">
<rect width="100" height="100"/>
</g></g><g transform="translate(630,210) scale(0.07,0.07)"><g transform="" style="fill: rgb(0, 0, 0);">
<path d="M250,0c138.077,0,250,111.93,250,250c0,138.077-111.923,250-250,250C111.93,500,0,388.077,0,250C0,111.93,111.93,0,250,0z"
	/>
</g></g><g transform="translate(700,210) scale(2.5,2.5)"><g transform="" style="fill: rgb(0, 0, 0);">
    <path d="M-0.001,0l14,0c0,0-4.381,9.151-0.551,14C13.448,14-0.001,14.24-0.001,0z"/>
</g></g><g transform="translate(315,245) scale(2.5,2.5)"><g transform="" style="fill: rgb(0, 0, 0);">
    <path d="M13.999-0.001v14H0.029H0v-3.431C0,4.729,6.267-0.001,13.999-0.001z"/>
</g></g><g transform="translate(350,245) scale(0.35,0.35)"><g transform="" style="fill: rgb(0, 0, 0);">
<rect width="100" height="100"/>
</g></g><g transform="translate(385,245) scale(2.5,2.5)"><g transform="" style="fill: rgb(0, 0, 0);">
    <path d="M0,14V0c0,0,9.15,4.38,14,0.55C14,0.55,14.24,14,0,14z"/>
</g></g><g transform="translate(455,245) scale(2.5,2.5)"><g transform="" style="fill: rgb(0, 0, 0);">
    <path d="M14,14H0c0,0,4.38-9.15,0.55-14C0.55,0,14-0.24,14,14z"/>
</g></g><g transform="translate(525,245) scale(2.5,2.5)"><g transform="" style="fill: rgb(0, 0, 0);">
    <path d="M13.999,0v14c0,0-9.151-4.381-14-0.551C-0.001,13.449-0.242,0,13.999,0z"/>
</g></g><g transform="translate(560,245) scale(0.35,0.35)"><g transform="" style="fill: rgb(0, 0, 0);">
<rect width="100" height="100"/>
</g></g><g transform="translate(665,245) scale(2.5,2.5)"><g transform="" style="fill: rgb(0, 0, 0);">
    <path d="M14,14H0c0,0,4.38-9.15,0.55-14C0.55,0,14-0.24,14,14z"/>
</g></g><g transform="translate(0,280) scale(0.07,0.07)"><g transform="" style="fill: rgb(0, 0, 0);">
<path d="M250,0c138.077,0,250,111.93,250,250c0,138.077-111.923,250-250,250C111.93,500,0,388.077,0,250C0,111.93,111.93,0,250,0z"
	/>
</g></g><g transform="translate(105,280) scale(2.5,2.5)"><g transform="" style="fill: rgb(0, 0, 0);">
    <path d="M13.999-0.001v14H0.029H0v-3.431C0,4.729,6.267-0.001,13.999-0.001z"/>
</g></g><g transform="translate(140,280) scale(0.35,0.35)"><g transform="" style="fill: rgb(0, 0, 0);">
<rect width="100" height="100"/>
</g></g><g transform="translate(175,280) scale(0.35,0.35)"><g transform="" style="fill: rgb(0, 0, 0);">
<rect width="100" height="100"/>
</g></g><g transform="translate(210,280) scale(0.35,0.35)"><g transform="" style="fill: rgb(0, 0, 0);">
<rect width="100" height="100"/>
</g></g><g transform="translate(245,280) scale(0.35,0.35)"><g transform="" style="fill: rgb(0, 0, 0);">
<rect width="100" height="100"/>
</g></g><g transform="translate(280,280) scale(0.35,0.35)"><g transform="" style="fill: rgb(0, 0, 0);">
<rect width="100" height="100"/>
</g></g><g transform="translate(315,280) scale(2.5,2.5)"><g transform="" style="fill: rgb(0, 0, 0);">
    <path d="M0,14V0h13.971H14v3.43C14,9.27,7.732,14,0,14z"/>
</g></g><g transform="translate(455,280) scale(0.35,0.35)"><g transform="" style="fill: rgb(0, 0, 0);">
<rect width="100" height="100"/>
</g></g><g transform="translate(560,280) scale(0.35,0.35)"><g transform="" style="fill: rgb(0, 0, 0);">
<rect width="100" height="100"/>
</g></g><g transform="translate(595,280) scale(2.5,2.5)"><g transform="" style="fill: rgb(0, 0, 0);">
    <path d="M0,14V0c0,0,9.15,4.38,14,0.55C14,0.55,14.24,14,0,14z"/>
</g></g><g transform="translate(665,280) scale(0.35,0.35)"><g transform="" style="fill: rgb(0, 0, 0);">
<rect width="100" height="100"/>
</g></g><g transform="translate(735,280) scale(2.5,2.5)"><g transform="" style="fill: rgb(0, 0, 0);">
    <path d="M14,14H0c0,0,4.38-9.15,0.55-14C0.55,0,14-0.24,14,14z"/>
</g></g><g transform="translate(840,280) scale(2.5,2.5)"><g transform="" style="fill: rgb(0, 0, 0);">
    <path d="M14,14H0c0,0,4.38-9.15,0.55-14C0.55,0,14-0.24,14,14z"/>
</g></g><g transform="translate(910,280) scale(2.5,2.5)"><g transform="" style="fill: rgb(0, 0, 0);">
    <path d="M13.999-0.001v14H0.029H0v-3.431C0,4.729,6.267-0.001,13.999-0.001z"/>
</g></g><g transform="translate(945,280) scale(0.35,0.35)"><g transform="" style="fill: rgb(0, 0, 0);">
<rect width="100" height="100"/>
</g></g><g transform="translate(980,280) scale(2.5,2.5)"><g transform="" style="fill: rgb(0, 0, 0);">
    <path d="M0,14V0c0,0,9.15,4.38,14,0.55C14,0.55,14.24,14,0,14z"/>
</g></g><g transform="translate(35,315) scale(0.07,0.07)"><g transform="" style="fill: rgb(0, 0, 0);">
<path d="M250,0c138.077,0,250,111.93,250,250c0,138.077-111.923,250-250,250C111.93,500,0,388.077,0,250C0,111.93,111.93,0,250,0z"
	/>
</g></g><g transform="translate(105,315) scale(0.35,0.35)"><g transform="" style="fill: rgb(0, 0, 0);">
<rect width="100" height="100"/>
</g></g><g transform="translate(140,315) scale(0.35,0.35)"><g transform="" style="fill: rgb(0, 0, 0);">
<rect width="100" height="100"/>
</g></g><g transform="translate(175,315) scale(2.5,2.5)"><g transform="" style="fill: rgb(0, 0, 0);">
    <path d="M0,14V0h13.971H14v3.43C14,9.27,7.732,14,0,14z"/>
</g></g><g transform="translate(245,315) scale(0.35,0.35)"><g transform="" style="fill: rgb(0, 0, 0);">
<rect width="100" height="100"/>
</g></g><g transform="translate(350,315) scale(2.5,2.5)"><g transform="" style="fill: rgb(0, 0, 0);">
    <path d="M13.999,0v14c0,0-9.151-4.381-14-0.551C-0.001,13.449-0.242,0,13.999,0z"/>
</g></g><g transform="translate(385,315) scale(2.5,2.5)"><g transform="" style="fill: rgb(0, 0, 0);">
    <path d="M0,14V0c0,0,9.15,4.38,14,0.55C14,0.55,14.24,14,0,14z"/>
</g></g><g transform="translate(455,315) scale(0.35,0.35)"><g transform="" style="fill: rgb(0, 0, 0);">
<rect width="100" height="100"/>
</g></g><g transform="translate(560,315) scale(2.5,2.5)"><g transform="" style="fill: rgb(0, 0, 0);">
    <path d="M-0.001,0l14,0c0,0-4.381,9.151-0.551,14C13.448,14-0.001,14.24-0.001,0z"/>
</g></g><g transform="translate(630,315) scale(2.5,2.5)"><g transform="" style="fill: rgb(0, 0, 0);">
    <path d="M13.999-0.001v14H0.029H0v-3.431C0,4.729,6.267-0.001,13.999-0.001z"/>
</g></g><g transform="translate(665,315) scale(2.5,2.5)"><g transform="" style="fill: rgb(0, 0, 0);">
    <path d="M0,14V0h13.971H14v3.43C14,9.27,7.732,14,0,14z"/>
</g></g><g transform="translate(735,315) scale(2.5,2.5)"><g transform="" style="fill: rgb(0, 0, 0);">
    <path d="M-0.001,0l14,0c0,0-4.381,9.151-0.551,14C13.448,14-0.001,14.24-0.001,0z"/>
</g></g><g transform="translate(805,315) scale(2.5,2.5)"><g transform="" style="fill: rgb(0, 0, 0);">
    <path d="M13.999-0.001v14H0.029H0v-3.431C0,4.729,6.267-0.001,13.999-0.001z"/>
</g></g><g transform="translate(840,315) scale(0.35,0.35)"><g transform="" style="fill: rgb(0, 0, 0);">
<rect width="100" height="100"/>
</g></g><g transform="translate(910,315) scale(0.35,0.35)"><g transform="" style="fill: rgb(0, 0, 0);">
<rect width="100" height="100"/>
</g></g><g transform="translate(945,315) scale(2.5,2.5)"><g transform="" style="fill: rgb(0, 0, 0);">
    <path d="M0,14V0h13.971H14v3.43C14,9.27,7.732,14,0,14z"/>
</g></g><g transform="translate(0,350) scale(0.07,0.07)"><g transform="" style="fill: rgb(0, 0, 0);">
<path d="M250,0c138.077,0,250,111.93,250,250c0,138.077-111.923,250-250,250C111.93,500,0,388.077,0,250C0,111.93,111.93,0,250,0z"
	/>
</g></g><g transform="translate(70,350) scale(2.5,2.5)"><g transform="" style="fill: rgb(0, 0, 0);">
    <path d="M13.999,0v14c0,0-9.151-4.381-14-0.551C-0.001,13.449-0.242,0,13.999,0z"/>
</g></g><g transform="translate(105,350) scale(2.5,2.5)"><g transform="" style="fill: rgb(0, 0, 0);">
    <path d="M0,14V0h13.971H14v3.43C14,9.27,7.732,14,0,14z"/>
</g></g><g transform="translate(210,350) scale(2.5,2.5)"><g transform="" style="fill: rgb(0, 0, 0);">
    <path d="M13.999,0v14c0,0-9.151-4.381-14-0.551C-0.001,13.449-0.242,0,13.999,0z"/>
</g></g><g transform="translate(245,350) scale(2.5,2.5)"><g transform="" style="fill: rgb(0, 0, 0);">
    <path d="M0,14V0h13.971H14v3.43C14,9.27,7.732,14,0,14z"/>
</g></g><g transform="translate(455,350) scale(0.35,0.35)"><g transform="" style="fill: rgb(0, 0, 0);">
<rect width="100" height="100"/>
</g></g><g transform="translate(525,350) scale(0.07,0.07)"><g transform="" style="fill: rgb(0, 0, 0);">
<path d="M250,0c138.077,0,250,111.93,250,250c0,138.077-111.923,250-250,250C111.93,500,0,388.077,0,250C0,111.93,111.93,0,250,0z"
	/>
</g></g><g transform="translate(630,350) scale(0.35,0.35)"><g transform="" style="fill: rgb(0, 0, 0);">
<rect width="100" height="100"/>
</g></g><g transform="translate(805,350) scale(0.35,0.35)"><g transform="" style="fill: rgb(0, 0, 0);">
<rect width="100" height="100"/>
</g></g><g transform="translate(840,350) scale(2.5,2.5)"><g transform="" style="fill: rgb(0, 0, 0);">
    <path d="M0,14V0h13.971H14v3.43C14,9.27,7.732,14,0,14z"/>
</g></g><g transform="translate(910,350) scale(2.5,2.5)"><g transform="" style="fill: rgb(0, 0, 0);">
    <path d="M-0.001,0l14,0c0,0-4.381,9.151-0.551,14C13.448,14-0.001,14.24-0.001,0z"/>
</g></g><g transform="translate(35,385) scale(0.07,0.07)"><g transform="" style="fill: rgb(0, 0, 0);">
<path d="M250,0c138.077,0,250,111.93,250,250c0,138.077-111.923,250-250,250C111.93,500,0,388.077,0,250C0,111.93,111.93,0,250,0z"
	/>
</g></g><g transform="translate(140,385) scale(2.5,2.5)"><g transform="" style="fill: rgb(0, 0, 0);">
    <path d="M13.999,0v14c0,0-9.151-4.381-14-0.551C-0.001,13.449-0.242,0,13.999,0z"/>
</g></g><g transform="translate(175,385) scale(2.5,2.5)"><g transform="" style="fill: rgb(0, 0, 0);">
    <path d="M13.999,13.999H0V0.028v-0.029h3.43C9.269-0.001,13.999,6.267,13.999,13.999z"/>
</g></g><g transform="translate(385,385) scale(2.5,2.5)"><g transform="" style="fill: rgb(0, 0, 0);">
    <path d="M13.999,0v14c0,0-9.151-4.381-14-0.551C-0.001,13.449-0.242,0,13.999,0z"/>
</g></g><g transform="translate(420,385) scale(0.35,0.35)"><g transform="" style="fill: rgb(0, 0, 0);">
<rect width="100" height="100"/>
</g></g><g transform="translate(455,385) scale(0.35,0.35)"><g transform="" style="fill: rgb(0, 0, 0);">
<rect width="100" height="100"/>
</g></g><g transform="translate(595,385) scale(2.5,2.5)"><g transform="" style="fill: rgb(0, 0, 0);">
    <path d="M13.999,0v14c0,0-9.151-4.381-14-0.551C-0.001,13.449-0.242,0,13.999,0z"/>
</g></g><g transform="translate(630,385) scale(0.35,0.35)"><g transform="" style="fill: rgb(0, 0, 0);">
<rect width="100" height="100"/>
</g></g><g transform="translate(665,385) scale(0.35,0.35)"><g transform="" style="fill: rgb(0, 0, 0);">
<rect width="100" height="100"/>
</g></g><g transform="translate(700,385) scale(0.35,0.35)"><g transform="" style="fill: rgb(0, 0, 0);">
<rect width="100" height="100"/>
</g></g><g transform="translate(735,385) scale(0.35,0.35)"><g transform="" style="fill: rgb(0, 0, 0);">
<rect width="100" height="100"/>
</g></g><g transform="translate(770,385) scale(0.35,0.35)"><g transform="" style="fill: rgb(0, 0, 0);">
<rect width="100" height="100"/>
</g></g><g transform="translate(805,385) scale(0.35,0.35)"><g transform="" style="fill: rgb(0, 0, 0);">
<rect width="100" height="100"/>
</g></g><g transform="translate(875,385) scale(0.07,0.07)"><g transform="" style="fill: rgb(0, 0, 0);">
<path d="M250,0c138.077,0,250,111.93,250,250c0,138.077-111.923,250-250,250C111.93,500,0,388.077,0,250C0,111.93,111.93,0,250,0z"
	/>
</g></g><g transform="translate(980,385) scale(2.5,2.5)"><g transform="" style="fill: rgb(0, 0, 0);">
    <path d="M14,14H0c0,0,4.38-9.15,0.55-14C0.55,0,14-0.24,14,14z"/>
</g></g><g transform="translate(0,420) scale(2.5,2.5)"><g transform="" style="fill: rgb(0, 0, 0);">
    <path d="M14,14H0c0,0,4.38-9.15,0.55-14C0.55,0,14-0.24,14,14z"/>
</g></g><g transform="translate(70,420) scale(2.5,2.5)"><g transform="" style="fill: rgb(0, 0, 0);">
    <path d="M13.999-0.001v14H0.029H0v-3.431C0,4.729,6.267-0.001,13.999-0.001z"/>
</g></g><g transform="translate(105,420) scale(2.5,2.5)"><g transform="" style="fill: rgb(0, 0, 0);">
    <path d="M0,14V0c0,0,9.15,4.38,14,0.55C14,0.55,14.24,14,0,14z"/>
</g></g><g transform="translate(175,420) scale(2.5,2.5)"><g transform="" style="fill: rgb(0, 0, 0);">
        <path d="M0-0.001h14v13.97v0.029l-3.431,0.001C4.731,13.999,0,7.731,0-0.001z"/>
</g></g><g transform="translate(210,420) scale(0.35,0.35)"><g transform="" style="fill: rgb(0, 0, 0);">
<rect width="100" height="100"/>
</g></g><g transform="translate(245,420) scale(2.5,2.5)"><g transform="" style="fill: rgb(0, 0, 0);">
    <path d="M13.999,13.999H0V0.028v-0.029h3.43C9.269-0.001,13.999,6.267,13.999,13.999z"/>
</g></g><g transform="translate(315,420) scale(2.5,2.5)"><g transform="" style="fill: rgb(0, 0, 0);">
    <path d="M13.999-0.001v14H0.029H0v-3.431C0,4.729,6.267-0.001,13.999-0.001z"/>
</g></g><g transform="translate(350,420) scale(2.5,2.5)"><g transform="" style="fill: rgb(0, 0, 0);">
    <path d="M0,14V0c0,0,9.15,4.38,14,0.55C14,0.55,14.24,14,0,14z"/>
</g></g><g transform="translate(455,420) scale(0.35,0.35)"><g transform="" style="fill: rgb(0, 0, 0);">
<rect width="100" height="100"/>
</g></g><g transform="translate(525,420) scale(2.5,2.5)"><g transform="" style="fill: rgb(0, 0, 0);">
    <path d="M13.999-0.001v14H0.029H0v-3.431C0,4.729,6.267-0.001,13.999-0.001z"/>
</g></g><g transform="translate(560,420) scale(2.5,2.5)"><g transform="" style="fill: rgb(0, 0, 0);">
    <path d="M13.999,13.999H0V0.028v-0.029h3.43C9.269-0.001,13.999,6.267,13.999,13.999z"/>
</g></g><g transform="translate(665,420) scale(2.5,2.5)"><g transform="" style="fill: rgb(0, 0, 0);">
        <path d="M0-0.001h14v13.97v0.029l-3.431,0.001C4.731,13.999,0,7.731,0-0.001z"/>
</g></g><g transform="translate(700,420) scale(2.5,2.5)"><g transform="" style="fill: rgb(0, 0, 0);">
    <path d="M0,14V0h13.971H14v3.43C14,9.27,7.732,14,0,14z"/>
</g></g><g transform="translate(770,420) scale(0.35,0.35)"><g transform="" style="fill: rgb(0, 0, 0);">
<rect width="100" height="100"/>
</g></g><g transform="translate(805,420) scale(0.35,0.35)"><g transform="" style="fill: rgb(0, 0, 0);">
<rect width="100" height="100"/>
</g></g><g transform="translate(980,420) scale(0.35,0.35)"><g transform="" style="fill: rgb(0, 0, 0);">
<rect width="100" height="100"/>
</g></g><g transform="translate(0,455) scale(0.35,0.35)"><g transform="" style="fill: rgb(0, 0, 0);">
<rect width="100" height="100"/>
</g></g><g transform="translate(35,455) scale(0.35,0.35)"><g transform="" style="fill: rgb(0, 0, 0);">
<rect width="100" height="100"/>
</g></g><g transform="translate(70,455) scale(0.35,0.35)"><g transform="" style="fill: rgb(0, 0, 0);">
<rect width="100" height="100"/>
</g></g><g transform="translate(245,455) scale(2.5,2.5)"><g transform="" style="fill: rgb(0, 0, 0);">
    <path d="M-0.001,0l14,0c0,0-4.381,9.151-0.551,14C13.448,14-0.001,14.24-0.001,0z"/>
</g></g><g transform="translate(315,455) scale(2.5,2.5)"><g transform="" style="fill: rgb(0, 0, 0);">
    <path d="M-0.001,0l14,0c0,0-4.381,9.151-0.551,14C13.448,14-0.001,14.24-0.001,0z"/>
</g></g><g transform="translate(385,455) scale(0.07,0.07)"><g transform="" style="fill: rgb(0, 0, 0);">
<path d="M250,0c138.077,0,250,111.93,250,250c0,138.077-111.923,250-250,250C111.93,500,0,388.077,0,250C0,111.93,111.93,0,250,0z"
	/>
</g></g><g transform="translate(455,455) scale(0.35,0.35)"><g transform="" style="fill: rgb(0, 0, 0);">
<rect width="100" height="100"/>
</g></g><g transform="translate(490,455) scale(0.35,0.35)"><g transform="" style="fill: rgb(0, 0, 0);">
<rect width="100" height="100"/>
</g></g><g transform="translate(525,455) scale(0.35,0.35)"><g transform="" style="fill: rgb(0, 0, 0);">
<rect width="100" height="100"/>
</g></g><g transform="translate(560,455) scale(2.5,2.5)"><g transform="" style="fill: rgb(0, 0, 0);">
    <path d="M0,14V0h13.971H14v3.43C14,9.27,7.732,14,0,14z"/>
</g></g><g transform="translate(770,455) scale(0.35,0.35)"><g transform="" style="fill: rgb(0, 0, 0);">
<rect width="100" height="100"/>
</g></g><g transform="translate(805,455) scale(0.35,0.35)"><g transform="" style="fill: rgb(0, 0, 0);">
<rect width="100" height="100"/>
</g></g><g transform="translate(840,455) scale(0.35,0.35)"><g transform="" style="fill: rgb(0, 0, 0);">
<rect width="100" height="100"/>
</g></g><g transform="translate(875,455) scale(0.35,0.35)"><g transform="" style="fill: rgb(0, 0, 0);">
<rect width="100" height="100"/>
</g></g><g transform="translate(910,455) scale(0.35,0.35)"><g transform="" style="fill: rgb(0, 0, 0);">
<rect width="100" height="100"/>
</g></g><g transform="translate(945,455) scale(0.35,0.35)"><g transform="" style="fill: rgb(0, 0, 0);">
<rect width="100" height="100"/>
</g></g><g transform="translate(980,455) scale(0.35,0.35)"><g transform="" style="fill: rgb(0, 0, 0);">
<rect width="100" height="100"/>
</g></g><g transform="translate(0,490) scale(0.35,0.35)"><g transform="" style="fill: rgb(0, 0, 0);">
<rect width="100" height="100"/>
</g></g><g transform="translate(35,490) scale(0.35,0.35)"><g transform="" style="fill: rgb(0, 0, 0);">
<rect width="100" height="100"/>
</g></g><g transform="translate(70,490) scale(2.5,2.5)"><g transform="" style="fill: rgb(0, 0, 0);">
    <path d="M0,14V0h13.971H14v3.43C14,9.27,7.732,14,0,14z"/>
</g></g><g transform="translate(210,490) scale(0.07,0.07)"><g transform="" style="fill: rgb(0, 0, 0);">
<path d="M250,0c138.077,0,250,111.93,250,250c0,138.077-111.923,250-250,250C111.93,500,0,388.077,0,250C0,111.93,111.93,0,250,0z"
	/>
</g></g><g transform="translate(280,490) scale(2.5,2.5)"><g transform="" style="fill: rgb(0, 0, 0);">
    <path d="M14,14H0c0,0,4.38-9.15,0.55-14C0.55,0,14-0.24,14,14z"/>
</g></g><g transform="translate(420,490) scale(2.5,2.5)"><g transform="" style="fill: rgb(0, 0, 0);">
    <path d="M13.999-0.001v14H0.029H0v-3.431C0,4.729,6.267-0.001,13.999-0.001z"/>
</g></g><g transform="translate(455,490) scale(2.5,2.5)"><g transform="" style="fill: rgb(0, 0, 0);">
    <path d="M0,14V0h13.971H14v3.43C14,9.27,7.732,14,0,14z"/>
</g></g><g transform="translate(525,490) scale(0.35,0.35)"><g transform="" style="fill: rgb(0, 0, 0);">
<rect width="100" height="100"/>
</g></g><g transform="translate(665,490) scale(2.5,2.5)"><g transform="" style="fill: rgb(0, 0, 0);">
    <path d="M13.999-0.001v14H0.029H0v-3.431C0,4.729,6.267-0.001,13.999-0.001z"/>
</g></g><g transform="translate(700,490) scale(0.35,0.35)"><g transform="" style="fill: rgb(0, 0, 0);">
<rect width="100" height="100"/>
</g></g><g transform="translate(735,490) scale(0.35,0.35)"><g transform="" style="fill: rgb(0, 0, 0);">
<rect width="100" height="100"/>
</g></g><g transform="translate(770,490) scale(2.5,2.5)"><g transform="" style="fill: rgb(0, 0, 0);">
    <path d="M0,14V0h13.971H14v3.43C14,9.27,7.732,14,0,14z"/>
</g></g><g transform="translate(840,490) scale(0.35,0.35)"><g transform="" style="fill: rgb(0, 0, 0);">
<rect width="100" height="100"/>
</g></g><g transform="translate(910,490) scale(0.35,0.35)"><g transform="" style="fill: rgb(0, 0, 0);">
<rect width="100" height="100"/>
</g></g><g transform="translate(980,490) scale(0.35,0.35)"><g transform="" style="fill: rgb(0, 0, 0);">
<rect width="100" height="100"/>
</g></g><g transform="translate(0,525) scale(0.35,0.35)"><g transform="" style="fill: rgb(0, 0, 0);">
<rect width="100" height="100"/>
</g></g><g transform="translate(35,525) scale(0.35,0.35)"><g transform="" style="fill: rgb(0, 0, 0);">
<rect width="100" height="100"/>
</g></g><g transform="translate(140,525) scale(2.5,2.5)"><g transform="" style="fill: rgb(0, 0, 0);">
    <path d="M14,14H0c0,0,4.38-9.15,0.55-14C0.55,0,14-0.24,14,14z"/>
</g></g><g transform="translate(245,525) scale(2.5,2.5)"><g transform="" style="fill: rgb(0, 0, 0);">
    <path d="M13.999,0v14c0,0-9.151-4.381-14-0.551C-0.001,13.449-0.242,0,13.999,0z"/>
</g></g><g transform="translate(280,525) scale(0.35,0.35)"><g transform="" style="fill: rgb(0, 0, 0);">
<rect width="100" height="100"/>
</g></g><g transform="translate(315,525) scale(0.35,0.35)"><g transform="" style="fill: rgb(0, 0, 0);">
<rect width="100" height="100"/>
</g></g><g transform="translate(350,525) scale(2.5,2.5)"><g transform="" style="fill: rgb(0, 0, 0);">
    <path d="M13.999,13.999H0V0.028v-0.029h3.43C9.269-0.001,13.999,6.267,13.999,13.999z"/>
</g></g><g transform="translate(420,525) scale(0.35,0.35)"><g transform="" style="fill: rgb(0, 0, 0);">
<rect width="100" height="100"/>
</g></g><g transform="translate(525,525) scale(0.35,0.35)"><g transform="" style="fill: rgb(0, 0, 0);">
<rect width="100" height="100"/>
</g></g><g transform="translate(560,525) scale(2.5,2.5)"><g transform="" style="fill: rgb(0, 0, 0);">
    <path d="M13.999,13.999H0V0.028v-0.029h3.43C9.269-0.001,13.999,6.267,13.999,13.999z"/>
</g></g><g transform="translate(665,525) scale(0.35,0.35)"><g transform="" style="fill: rgb(0, 0, 0);">
<rect width="100" height="100"/>
</g></g><g transform="translate(805,525) scale(2.5,2.5)"><g transform="" style="fill: rgb(0, 0, 0);">
    <path d="M13.999,0v14c0,0-9.151-4.381-14-0.551C-0.001,13.449-0.242,0,13.999,0z"/>
</g></g><g transform="translate(840,525) scale(2.5,2.5)"><g transform="" style="fill: rgb(0, 0, 0);">
    <path d="M0,14V0h13.971H14v3.43C14,9.27,7.732,14,0,14z"/>
</g></g><g transform="translate(910,525) scale(2.5,2.5)"><g transform="" style="fill: rgb(0, 0, 0);">
    <path d="M-0.001,0l14,0c0,0-4.381,9.151-0.551,14C13.448,14-0.001,14.24-0.001,0z"/>
</g></g><g transform="translate(980,525) scale(2.5,2.5)"><g transform="" style="fill: rgb(0, 0, 0);">
    <path d="M-0.001,0l14,0c0,0-4.381,9.151-0.551,14C13.448,14-0.001,14.24-0.001,0z"/>
</g></g><g transform="translate(0,560) scale(0.35,0.35)"><g transform="" style="fill: rgb(0, 0, 0);">
<rect width="100" height="100"/>
</g></g><g transform="translate(35,560) scale(2.5,2.5)"><g transform="" style="fill: rgb(0, 0, 0);">
    <path d="M0,14V0h13.971H14v3.43C14,9.27,7.732,14,0,14z"/>
</g></g><g transform="translate(105,560) scale(2.5,2.5)"><g transform="" style="fill: rgb(0, 0, 0);">
    <path d="M13.999,0v14c0,0-9.151-4.381-14-0.551C-0.001,13.449-0.242,0,13.999,0z"/>
</g></g><g transform="translate(140,560) scale(0.35,0.35)"><g transform="" style="fill: rgb(0, 0, 0);">
<rect width="100" height="100"/>
</g></g><g transform="translate(210,560) scale(0.07,0.07)"><g transform="" style="fill: rgb(0, 0, 0);">
<path d="M250,0c138.077,0,250,111.93,250,250c0,138.077-111.923,250-250,250C111.93,500,0,388.077,0,250C0,111.93,111.93,0,250,0z"
	/>
</g></g><g transform="translate(350,560) scale(0.35,0.35)"><g transform="" style="fill: rgb(0, 0, 0);">
<rect width="100" height="100"/>
</g></g><g transform="translate(385,560) scale(0.35,0.35)"><g transform="" style="fill: rgb(0, 0, 0);">
<rect width="100" height="100"/>
</g></g><g transform="translate(420,560) scale(0.35,0.35)"><g transform="" style="fill: rgb(0, 0, 0);">
<rect width="100" height="100"/>
</g></g><g transform="translate(490,560) scale(2.5,2.5)"><g transform="" style="fill: rgb(0, 0, 0);">
    <path d="M13.999-0.001v14H0.029H0v-3.431C0,4.729,6.267-0.001,13.999-0.001z"/>
</g></g><g transform="translate(525,560) scale(0.35,0.35)"><g transform="" style="fill: rgb(0, 0, 0);">
<rect width="100" height="100"/>
</g></g><g transform="translate(560,560) scale(2.5,2.5)"><g transform="" style="fill: rgb(0, 0, 0);">
    <path d="M0,14V0h13.971H14v3.43C14,9.27,7.732,14,0,14z"/>
</g></g><g transform="translate(665,560) scale(0.35,0.35)"><g transform="" style="fill: rgb(0, 0, 0);">
<rect width="100" height="100"/>
</g></g><g transform="translate(700,560) scale(0.35,0.35)"><g transform="" style="fill: rgb(0, 0, 0);">
<rect width="100" height="100"/>
</g></g><g transform="translate(735,560) scale(2.5,2.5)"><g transform="" style="fill: rgb(0, 0, 0);">
    <path d="M0,14V0c0,0,9.15,4.38,14,0.55C14,0.55,14.24,14,0,14z"/>
</g></g><g transform="translate(875,560) scale(0.07,0.07)"><g transform="" style="fill: rgb(0, 0, 0);">
<path d="M250,0c138.077,0,250,111.93,250,250c0,138.077-111.923,250-250,250C111.93,500,0,388.077,0,250C0,111.93,111.93,0,250,0z"
	/>
</g></g><g transform="translate(0,595) scale(0.35,0.35)"><g transform="" style="fill: rgb(0, 0, 0);">
<rect width="100" height="100"/>
</g></g><g transform="translate(140,595) scale(0.35,0.35)"><g transform="" style="fill: rgb(0, 0, 0);">
<rect width="100" height="100"/>
</g></g><g transform="translate(175,595) scale(2.5,2.5)"><g transform="" style="fill: rgb(0, 0, 0);">
    <path d="M13.999,13.999H0V0.028v-0.029h3.43C9.269-0.001,13.999,6.267,13.999,13.999z"/>
</g></g><g transform="translate(280,595) scale(2.5,2.5)"><g transform="" style="fill: rgb(0, 0, 0);">
    <path d="M13.999,0v14c0,0-9.151-4.381-14-0.551C-0.001,13.449-0.242,0,13.999,0z"/>
</g></g><g transform="translate(315,595) scale(0.35,0.35)"><g transform="" style="fill: rgb(0, 0, 0);">
<rect width="100" height="100"/>
</g></g><g transform="translate(350,595) scale(2.5,2.5)"><g transform="" style="fill: rgb(0, 0, 0);">
    <path d="M0,14V0h13.971H14v3.43C14,9.27,7.732,14,0,14z"/>
</g></g><g transform="translate(420,595) scale(2.5,2.5)"><g transform="" style="fill: rgb(0, 0, 0);">
        <path d="M0-0.001h14v13.97v0.029l-3.431,0.001C4.731,13.999,0,7.731,0-0.001z"/>
</g></g><g transform="translate(455,595) scale(0.35,0.35)"><g transform="" style="fill: rgb(0, 0, 0);">
<rect width="100" height="100"/>
</g></g><g transform="translate(490,595) scale(0.35,0.35)"><g transform="" style="fill: rgb(0, 0, 0);">
<rect width="100" height="100"/>
</g></g><g transform="translate(525,595) scale(0.35,0.35)"><g transform="" style="fill: rgb(0, 0, 0);">
<rect width="100" height="100"/>
</g></g><g transform="translate(595,595) scale(2.5,2.5)"><g transform="" style="fill: rgb(0, 0, 0);">
    <path d="M13.999-0.001v14H0.029H0v-3.431C0,4.729,6.267-0.001,13.999-0.001z"/>
</g></g><g transform="translate(630,595) scale(0.35,0.35)"><g transform="" style="fill: rgb(0, 0, 0);">
<rect width="100" height="100"/>
</g></g><g transform="translate(665,595) scale(0.35,0.35)"><g transform="" style="fill: rgb(0, 0, 0);">
<rect width="100" height="100"/>
</g></g><g transform="translate(840,595) scale(2.5,2.5)"><g transform="" style="fill: rgb(0, 0, 0);">
    <path d="M14,14H0c0,0,4.38-9.15,0.55-14C0.55,0,14-0.24,14,14z"/>
</g></g><g transform="translate(910,595) scale(2.5,2.5)"><g transform="" style="fill: rgb(0, 0, 0);">
    <path d="M13.999,0v14c0,0-9.151-4.381-14-0.551C-0.001,13.449-0.242,0,13.999,0z"/>
</g></g><g transform="translate(945,595) scale(2.5,2.5)"><g transform="" style="fill: rgb(0, 0, 0);">
    <path d="M0,14V0c0,0,9.15,4.38,14,0.55C14,0.55,14.24,14,0,14z"/>
</g></g><g transform="translate(0,630) scale(0.35,0.35)"><g transform="" style="fill: rgb(0, 0, 0);">
<rect width="100" height="100"/>
</g></g><g transform="translate(35,630) scale(0.35,0.35)"><g transform="" style="fill: rgb(0, 0, 0);">
<rect width="100" height="100"/>
</g></g><g transform="translate(70,630) scale(0.35,0.35)"><g transform="" style="fill: rgb(0, 0, 0);">
<rect width="100" height="100"/>
</g></g><g transform="translate(105,630) scale(0.35,0.35)"><g transform="" style="fill: rgb(0, 0, 0);">
<rect width="100" height="100"/>
</g></g><g transform="translate(140,630) scale(0.35,0.35)"><g transform="" style="fill: rgb(0, 0, 0);">
<rect width="100" height="100"/>
</g></g><g transform="translate(175,630) scale(0.35,0.35)"><g transform="" style="fill: rgb(0, 0, 0);">
<rect width="100" height="100"/>
</g></g><g transform="translate(210,630) scale(2.5,2.5)"><g transform="" style="fill: rgb(0, 0, 0);">
    <path d="M0,14V0c0,0,9.15,4.38,14,0.55C14,0.55,14.24,14,0,14z"/>
</g></g><g transform="translate(525,630) scale(0.35,0.35)"><g transform="" style="fill: rgb(0, 0, 0);">
<rect width="100" height="100"/>
</g></g><g transform="translate(595,630) scale(2.5,2.5)"><g transform="" style="fill: rgb(0, 0, 0);">
    <path d="M-0.001,0l14,0c0,0-4.381,9.151-0.551,14C13.448,14-0.001,14.24-0.001,0z"/>
</g></g><g transform="translate(665,630) scale(0.35,0.35)"><g transform="" style="fill: rgb(0, 0, 0);">
<rect width="100" height="100"/>
</g></g><g transform="translate(840,630) scale(2.5,2.5)"><g transform="" style="fill: rgb(0, 0, 0);">
        <path d="M0-0.001h14v13.97v0.029l-3.431,0.001C4.731,13.999,0,7.731,0-0.001z"/>
</g></g><g transform="translate(875,630) scale(2.5,2.5)"><g transform="" style="fill: rgb(0, 0, 0);">
    <path d="M13.999,13.999H0V0.028v-0.029h3.43C9.269-0.001,13.999,6.267,13.999,13.999z"/>
</g></g><g transform="translate(980,630) scale(0.07,0.07)"><g transform="" style="fill: rgb(0, 0, 0);">
<path d="M250,0c138.077,0,250,111.93,250,250c0,138.077-111.923,250-250,250C111.93,500,0,388.077,0,250C0,111.93,111.93,0,250,0z"
	/>
</g></g><g transform="translate(0,665) scale(0.35,0.35)"><g transform="" style="fill: rgb(0, 0, 0);">
<rect width="100" height="100"/>
</g></g><g transform="translate(35,665) scale(0.35,0.35)"><g transform="" style="fill: rgb(0, 0, 0);">
<rect width="100" height="100"/>
</g></g><g transform="translate(175,665) scale(0.35,0.35)"><g transform="" style="fill: rgb(0, 0, 0);">
<rect width="100" height="100"/>
</g></g><g transform="translate(315,665) scale(2.5,2.5)"><g transform="" style="fill: rgb(0, 0, 0);">
    <path d="M13.999-0.001v14H0.029H0v-3.431C0,4.729,6.267-0.001,13.999-0.001z"/>
</g></g><g transform="translate(350,665) scale(2.5,2.5)"><g transform="" style="fill: rgb(0, 0, 0);">
    <path d="M13.999,13.999H0V0.028v-0.029h3.43C9.269-0.001,13.999,6.267,13.999,13.999z"/>
</g></g><g transform="translate(490,665) scale(2.5,2.5)"><g transform="" style="fill: rgb(0, 0, 0);">
    <path d="M13.999-0.001v14H0.029H0v-3.431C0,4.729,6.267-0.001,13.999-0.001z"/>
</g></g><g transform="translate(525,665) scale(0.35,0.35)"><g transform="" style="fill: rgb(0, 0, 0);">
<rect width="100" height="100"/>
</g></g><g transform="translate(665,665) scale(2.5,2.5)"><g transform="" style="fill: rgb(0, 0, 0);">
    <path d="M-0.001,0l14,0c0,0-4.381,9.151-0.551,14C13.448,14-0.001,14.24-0.001,0z"/>
</g></g><g transform="translate(770,665) scale(2.5,2.5)"><g transform="" style="fill: rgb(0, 0, 0);">
    <path d="M14,14H0c0,0,4.38-9.15,0.55-14C0.55,0,14-0.24,14,14z"/>
</g></g><g transform="translate(875,665) scale(0.35,0.35)"><g transform="" style="fill: rgb(0, 0, 0);">
<rect width="100" height="100"/>
</g></g><g transform="translate(910,665) scale(2.5,2.5)"><g transform="" style="fill: rgb(0, 0, 0);">
    <path d="M13.999,13.999H0V0.028v-0.029h3.43C9.269-0.001,13.999,6.267,13.999,13.999z"/>
</g></g><g transform="translate(0,700) scale(2.5,2.5)"><g transform="" style="fill: rgb(0, 0, 0);">
        <path d="M0-0.001h14v13.97v0.029l-3.431,0.001C4.731,13.999,0,7.731,0-0.001z"/>
</g></g><g transform="translate(35,700) scale(0.35,0.35)"><g transform="" style="fill: rgb(0, 0, 0);">
<rect width="100" height="100"/>
</g></g><g transform="translate(70,700) scale(2.5,2.5)"><g transform="" style="fill: rgb(0, 0, 0);">
    <path d="M0,14V0c0,0,9.15,4.38,14,0.55C14,0.55,14.24,14,0,14z"/>
</g></g><g transform="translate(175,700) scale(2.5,2.5)"><g transform="" style="fill: rgb(0, 0, 0);">
        <path d="M0-0.001h14v13.97v0.029l-3.431,0.001C4.731,13.999,0,7.731,0-0.001z"/>
</g></g><g transform="translate(210,700) scale(0.35,0.35)"><g transform="" style="fill: rgb(0, 0, 0);">
<rect width="100" height="100"/>
</g></g><g transform="translate(245,700) scale(2.5,2.5)"><g transform="" style="fill: rgb(0, 0, 0);">
    <path d="M0,14V0c0,0,9.15,4.38,14,0.55C14,0.55,14.24,14,0,14z"/>
</g></g><g transform="translate(315,700) scale(2.5,2.5)"><g transform="" style="fill: rgb(0, 0, 0);">
        <path d="M0-0.001h14v13.97v0.029l-3.431,0.001C4.731,13.999,0,7.731,0-0.001z"/>
</g></g><g transform="translate(350,700) scale(2.5,2.5)"><g transform="" style="fill: rgb(0, 0, 0);">
    <path d="M0,14V0h13.971H14v3.43C14,9.27,7.732,14,0,14z"/>
</g></g><g transform="translate(455,700) scale(2.5,2.5)"><g transform="" style="fill: rgb(0, 0, 0);">
    <path d="M13.999,0v14c0,0-9.151-4.381-14-0.551C-0.001,13.449-0.242,0,13.999,0z"/>
</g></g><g transform="translate(490,700) scale(0.35,0.35)"><g transform="" style="fill: rgb(0, 0, 0);">
<rect width="100" height="100"/>
</g></g><g transform="translate(525,700) scale(0.35,0.35)"><g transform="" style="fill: rgb(0, 0, 0);">
<rect width="100" height="100"/>
</g></g><g transform="translate(595,700) scale(2.5,2.5)"><g transform="" style="fill: rgb(0, 0, 0);">
    <path d="M14,14H0c0,0,4.38-9.15,0.55-14C0.55,0,14-0.24,14,14z"/>
</g></g><g transform="translate(700,700) scale(2.5,2.5)"><g transform="" style="fill: rgb(0, 0, 0);">
    <path d="M13.999-0.001v14H0.029H0v-3.431C0,4.729,6.267-0.001,13.999-0.001z"/>
</g></g><g transform="translate(735,700) scale(0.35,0.35)"><g transform="" style="fill: rgb(0, 0, 0);">
<rect width="100" height="100"/>
</g></g><g transform="translate(770,700) scale(0.35,0.35)"><g transform="" style="fill: rgb(0, 0, 0);">
<rect width="100" height="100"/>
</g></g><g transform="translate(805,700) scale(0.35,0.35)"><g transform="" style="fill: rgb(0, 0, 0);">
<rect width="100" height="100"/>
</g></g><g transform="translate(840,700) scale(0.35,0.35)"><g transform="" style="fill: rgb(0, 0, 0);">
<rect width="100" height="100"/>
</g></g><g transform="translate(875,700) scale(0.35,0.35)"><g transform="" style="fill: rgb(0, 0, 0);">
<rect width="100" height="100"/>
</g></g><g transform="translate(910,700) scale(0.35,0.35)"><g transform="" style="fill: rgb(0, 0, 0);">
<rect width="100" height="100"/>
</g></g><g transform="translate(945,700) scale(2.5,2.5)"><g transform="" style="fill: rgb(0, 0, 0);">
    <path d="M0,14V0c0,0,9.15,4.38,14,0.55C14,0.55,14.24,14,0,14z"/>
</g></g><g transform="translate(280,735) scale(2.5,2.5)"><g transform="" style="fill: rgb(0, 0, 0);">
    <path d="M14,14H0c0,0,4.38-9.15,0.55-14C0.55,0,14-0.24,14,14z"/>
</g></g><g transform="translate(385,735) scale(2.5,2.5)"><g transform="" style="fill: rgb(0, 0, 0);">
    <path d="M13.999-0.001v14H0.029H0v-3.431C0,4.729,6.267-0.001,13.999-0.001z"/>
</g></g><g transform="translate(420,735) scale(2.5,2.5)"><g transform="" style="fill: rgb(0, 0, 0);">
    <path d="M0,14V0c0,0,9.15,4.38,14,0.55C14,0.55,14.24,14,0,14z"/>
</g></g><g transform="translate(490,735) scale(0.35,0.35)"><g transform="" style="fill: rgb(0, 0, 0);">
<rect width="100" height="100"/>
</g></g><g transform="translate(525,735) scale(0.35,0.35)"><g transform="" style="fill: rgb(0, 0, 0);">
<rect width="100" height="100"/>
</g></g><g transform="translate(595,735) scale(2.5,2.5)"><g transform="" style="fill: rgb(0, 0, 0);">
        <path d="M0-0.001h14v13.97v0.029l-3.431,0.001C4.731,13.999,0,7.731,0-0.001z"/>
</g></g><g transform="translate(630,735) scale(2.5,2.5)"><g transform="" style="fill: rgb(0, 0, 0);">
    <path d="M0,14V0c0,0,9.15,4.38,14,0.55C14,0.55,14.24,14,0,14z"/>
</g></g><g transform="translate(700,735) scale(0.35,0.35)"><g transform="" style="fill: rgb(0, 0, 0);">
<rect width="100" height="100"/>
</g></g><g transform="translate(840,735) scale(0.35,0.35)"><g transform="" style="fill: rgb(0, 0, 0);">
<rect width="100" height="100"/>
</g></g><g transform="translate(875,735) scale(0.35,0.35)"><g transform="" style="fill: rgb(0, 0, 0);">
<rect width="100" height="100"/>
</g></g><g transform="translate(280,770) scale(0.35,0.35)"><g transform="" style="fill: rgb(0, 0, 0);">
<rect width="100" height="100"/>
</g></g><g transform="translate(315,770) scale(2.5,2.5)"><g transform="" style="fill: rgb(0, 0, 0);">
    <path d="M13.999,13.999H0V0.028v-0.029h3.43C9.269-0.001,13.999,6.267,13.999,13.999z"/>
</g></g><g transform="translate(385,770) scale(0.35,0.35)"><g transform="" style="fill: rgb(0, 0, 0);">
<rect width="100" height="100"/>
</g></g><g transform="translate(490,770) scale(0.35,0.35)"><g transform="" style="fill: rgb(0, 0, 0);">
<rect width="100" height="100"/>
</g></g><g transform="translate(525,770) scale(2.5,2.5)"><g transform="" style="fill: rgb(0, 0, 0);">
    <path d="M0,14V0h13.971H14v3.43C14,9.27,7.732,14,0,14z"/>
</g></g><g transform="translate(665,770) scale(2.5,2.5)"><g transform="" style="fill: rgb(0, 0, 0);">
    <path d="M13.999-0.001v14H0.029H0v-3.431C0,4.729,6.267-0.001,13.999-0.001z"/>
</g></g><g transform="translate(700,770) scale(0.35,0.35)"><g transform="" style="fill: rgb(0, 0, 0);">
<rect width="100" height="100"/>
</g></g><g transform="translate(770,770) scale(0.07,0.07)"><g transform="" style="fill: rgb(0, 0, 0);">
<path d="M250,0c138.077,0,250,111.93,250,250c0,138.077-111.923,250-250,250C111.93,500,0,388.077,0,250C0,111.93,111.93,0,250,0z"
	/>
</g></g><g transform="translate(840,770) scale(0.35,0.35)"><g transform="" style="fill: rgb(0, 0, 0);">
<rect width="100" height="100"/>
</g></g><g transform="translate(875,770) scale(2.5,2.5)"><g transform="" style="fill: rgb(0, 0, 0);">
    <path d="M0,14V0h13.971H14v3.43C14,9.27,7.732,14,0,14z"/>
</g></g><g transform="translate(280,805) scale(0.35,0.35)"><g transform="" style="fill: rgb(0, 0, 0);">
<rect width="100" height="100"/>
</g></g><g transform="translate(315,805) scale(0.35,0.35)"><g transform="" style="fill: rgb(0, 0, 0);">
<rect width="100" height="100"/>
</g></g><g transform="translate(350,805) scale(0.35,0.35)"><g transform="" style="fill: rgb(0, 0, 0);">
<rect width="100" height="100"/>
</g></g><g transform="translate(385,805) scale(0.35,0.35)"><g transform="" style="fill: rgb(0, 0, 0);">
<rect width="100" height="100"/>
</g></g><g transform="translate(420,805) scale(2.5,2.5)"><g transform="" style="fill: rgb(0, 0, 0);">
    <path d="M0,14V0c0,0,9.15,4.38,14,0.55C14,0.55,14.24,14,0,14z"/>
</g></g><g transform="translate(490,805) scale(0.35,0.35)"><g transform="" style="fill: rgb(0, 0, 0);">
<rect width="100" height="100"/>
</g></g><g transform="translate(595,805) scale(2.5,2.5)"><g transform="" style="fill: rgb(0, 0, 0);">
    <path d="M13.999,0v14c0,0-9.151-4.381-14-0.551C-0.001,13.449-0.242,0,13.999,0z"/>
</g></g><g transform="translate(630,805) scale(0.35,0.35)"><g transform="" style="fill: rgb(0, 0, 0);">
<rect width="100" height="100"/>
</g></g><g transform="translate(665,805) scale(0.35,0.35)"><g transform="" style="fill: rgb(0, 0, 0);">
<rect width="100" height="100"/>
</g></g><g transform="translate(700,805) scale(0.35,0.35)"><g transform="" style="fill: rgb(0, 0, 0);">
<rect width="100" height="100"/>
</g></g><g transform="translate(840,805) scale(0.35,0.35)"><g transform="" style="fill: rgb(0, 0, 0);">
<rect width="100" height="100"/>
</g></g><g transform="translate(280,840) scale(0.35,0.35)"><g transform="" style="fill: rgb(0, 0, 0);">
<rect width="100" height="100"/>
</g></g><g transform="translate(315,840) scale(0.35,0.35)"><g transform="" style="fill: rgb(0, 0, 0);">
<rect width="100" height="100"/>
</g></g><g transform="translate(350,840) scale(0.35,0.35)"><g transform="" style="fill: rgb(0, 0, 0);">
<rect width="100" height="100"/>
</g></g><g transform="translate(385,840) scale(0.35,0.35)"><g transform="" style="fill: rgb(0, 0, 0);">
<rect width="100" height="100"/>
</g></g><g transform="translate(455,840) scale(2.5,2.5)"><g transform="" style="fill: rgb(0, 0, 0);">
    <path d="M13.999,0v14c0,0-9.151-4.381-14-0.551C-0.001,13.449-0.242,0,13.999,0z"/>
</g></g><g transform="translate(490,840) scale(2.5,2.5)"><g transform="" style="fill: rgb(0, 0, 0);">
    <path d="M0,14V0h13.971H14v3.43C14,9.27,7.732,14,0,14z"/>
</g></g><g transform="translate(560,840) scale(2.5,2.5)"><g transform="" style="fill: rgb(0, 0, 0);">
    <path d="M14,14H0c0,0,4.38-9.15,0.55-14C0.55,0,14-0.24,14,14z"/>
</g></g><g transform="translate(665,840) scale(2.5,2.5)"><g transform="" style="fill: rgb(0, 0, 0);">
        <path d="M0-0.001h14v13.97v0.029l-3.431,0.001C4.731,13.999,0,7.731,0-0.001z"/>
</g></g><g transform="translate(700,840) scale(0.35,0.35)"><g transform="" style="fill: rgb(0, 0, 0);">
<rect width="100" height="100"/>
</g></g><g transform="translate(735,840) scale(0.35,0.35)"><g transform="" style="fill: rgb(0, 0, 0);">
<rect width="100" height="100"/>
</g></g><g transform="translate(770,840) scale(0.35,0.35)"><g transform="" style="fill: rgb(0, 0, 0);">
<rect width="100" height="100"/>
</g></g><g transform="translate(805,840) scale(0.35,0.35)"><g transform="" style="fill: rgb(0, 0, 0);">
<rect width="100" height="100"/>
</g></g><g transform="translate(840,840) scale(0.35,0.35)"><g transform="" style="fill: rgb(0, 0, 0);">
<rect width="100" height="100"/>
</g></g><g transform="translate(875,840) scale(2.5,2.5)"><g transform="" style="fill: rgb(0, 0, 0);">
    <path d="M0,14V0c0,0,9.15,4.38,14,0.55C14,0.55,14.24,14,0,14z"/>
</g></g><g transform="translate(945,840) scale(2.5,2.5)"><g transform="" style="fill: rgb(0, 0, 0);">
    <path d="M13.999,0v14c0,0-9.151-4.381-14-0.551C-0.001,13.449-0.242,0,13.999,0z"/>
</g></g><g transform="translate(980,840) scale(2.5,2.5)"><g transform="" style="fill: rgb(0, 0, 0);">
    <path d="M13.999,13.999H0V0.028v-0.029h3.43C9.269-0.001,13.999,6.267,13.999,13.999z"/>
</g></g><g transform="translate(280,875) scale(2.5,2.5)"><g transform="" style="fill: rgb(0, 0, 0);">
        <path d="M0-0.001h14v13.97v0.029l-3.431,0.001C4.731,13.999,0,7.731,0-0.001z"/>
</g></g><g transform="translate(315,875) scale(2.5,2.5)"><g transform="" style="fill: rgb(0, 0, 0);">
    <path d="M0,14V0h13.971H14v3.43C14,9.27,7.732,14,0,14z"/>
</g></g><g transform="translate(385,875) scale(0.35,0.35)"><g transform="" style="fill: rgb(0, 0, 0);">
<rect width="100" height="100"/>
</g></g><g transform="translate(525,875) scale(2.5,2.5)"><g transform="" style="fill: rgb(0, 0, 0);">
    <path d="M13.999-0.001v14H0.029H0v-3.431C0,4.729,6.267-0.001,13.999-0.001z"/>
</g></g><g transform="translate(560,875) scale(0.35,0.35)"><g transform="" style="fill: rgb(0, 0, 0);">
<rect width="100" height="100"/>
</g></g><g transform="translate(595,875) scale(0.35,0.35)"><g transform="" style="fill: rgb(0, 0, 0);">
<rect width="100" height="100"/>
</g></g><g transform="translate(630,875) scale(2.5,2.5)"><g transform="" style="fill: rgb(0, 0, 0);">
    <path d="M0,14V0c0,0,9.15,4.38,14,0.55C14,0.55,14.24,14,0,14z"/>
</g></g><g transform="translate(735,875) scale(0.35,0.35)"><g transform="" style="fill: rgb(0, 0, 0);">
<rect width="100" height="100"/>
</g></g><g transform="translate(980,875) scale(0.35,0.35)"><g transform="" style="fill: rgb(0, 0, 0);">
<rect width="100" height="100"/>
</g></g><g transform="translate(385,910) scale(2.5,2.5)"><g transform="" style="fill: rgb(0, 0, 0);">
    <path d="M-0.001,0l14,0c0,0-4.381,9.151-0.551,14C13.448,14-0.001,14.24-0.001,0z"/>
</g></g><g transform="translate(455,910) scale(0.07,0.07)"><g transform="" style="fill: rgb(0, 0, 0);">
<path d="M250,0c138.077,0,250,111.93,250,250c0,138.077-111.923,250-250,250C111.93,500,0,388.077,0,250C0,111.93,111.93,0,250,0z"
	/>
</g></g><g transform="translate(525,910) scale(0.35,0.35)"><g transform="" style="fill: rgb(0, 0, 0);">
<rect width="100" height="100"/>
</g></g><g transform="translate(595,910) scale(2.5,2.5)"><g transform="" style="fill: rgb(0, 0, 0);">
    <path d="M-0.001,0l14,0c0,0-4.381,9.151-0.551,14C13.448,14-0.001,14.24-0.001,0z"/>
</g></g><g transform="translate(700,910) scale(2.5,2.5)"><g transform="" style="fill: rgb(0, 0, 0);">
    <path d="M13.999,0v14c0,0-9.151-4.381-14-0.551C-0.001,13.449-0.242,0,13.999,0z"/>
</g></g><g transform="translate(735,910) scale(2.5,2.5)"><g transform="" style="fill: rgb(0, 0, 0);">
    <path d="M0,14V0h13.971H14v3.43C14,9.27,7.732,14,0,14z"/>
</g></g><g transform="translate(805,910) scale(2.5,2.5)"><g transform="" style="fill: rgb(0, 0, 0);">
    <path d="M13.999-0.001v14H0.029H0v-3.431C0,4.729,6.267-0.001,13.999-0.001z"/>
</g></g><g transform="translate(840,910) scale(2.5,2.5)"><g transform="" style="fill: rgb(0, 0, 0);">
    <path d="M0,14V0c0,0,9.15,4.38,14,0.55C14,0.55,14.24,14,0,14z"/>
</g></g><g transform="translate(910,910) scale(2.5,2.5)"><g transform="" style="fill: rgb(0, 0, 0);">
    <path d="M13.999-0.001v14H0.029H0v-3.431C0,4.729,6.267-0.001,13.999-0.001z"/>
</g></g><g transform="translate(945,910) scale(0.35,0.35)"><g transform="" style="fill: rgb(0, 0, 0);">
<rect width="100" height="100"/>
</g></g><g transform="translate(980,910) scale(0.35,0.35)"><g transform="" style="fill: rgb(0, 0, 0);">
<rect width="100" height="100"/>
</g></g><g transform="translate(315,945) scale(2.5,2.5)"><g transform="" style="fill: rgb(0, 0, 0);">
    <path d="M13.999,0v14c0,0-9.151-4.381-14-0.551C-0.001,13.449-0.242,0,13.999,0z"/>
</g></g><g transform="translate(350,945) scale(2.5,2.5)"><g transform="" style="fill: rgb(0, 0, 0);">
    <path d="M13.999,13.999H0V0.028v-0.029h3.43C9.269-0.001,13.999,6.267,13.999,13.999z"/>
</g></g><g transform="translate(420,945) scale(0.07,0.07)"><g transform="" style="fill: rgb(0, 0, 0);">
<path d="M250,0c138.077,0,250,111.93,250,250c0,138.077-111.923,250-250,250C111.93,500,0,388.077,0,250C0,111.93,111.93,0,250,0z"
	/>
</g></g><g transform="translate(525,945) scale(2.5,2.5)"><g transform="" style="fill: rgb(0, 0, 0);">
    <path d="M-0.001,0l14,0c0,0-4.381,9.151-0.551,14C13.448,14-0.001,14.24-0.001,0z"/>
</g></g><g transform="translate(770,945) scale(2.5,2.5)"><g transform="" style="fill: rgb(0, 0, 0);">
    <path d="M13.999-0.001v14H0.029H0v-3.431C0,4.729,6.267-0.001,13.999-0.001z"/>
</g></g><g transform="translate(805,945) scale(2.5,2.5)"><g transform="" style="fill: rgb(0, 0, 0);">
    <path d="M0,14V0h13.971H14v3.43C14,9.27,7.732,14,0,14z"/>
</g></g><g transform="translate(875,945) scale(2.5,2.5)"><g transform="" style="fill: rgb(0, 0, 0);">
    <path d="M13.999,0v14c0,0-9.151-4.381-14-0.551C-0.001,13.449-0.242,0,13.999,0z"/>
</g></g><g transform="translate(910,945) scale(2.5,2.5)"><g transform="" style="fill: rgb(0, 0, 0);">
    <path d="M0,14V0h13.971H14v3.43C14,9.27,7.732,14,0,14z"/>
</g></g><g transform="translate(980,945) scale(2.5,2.5)"><g transform="" style="fill: rgb(0, 0, 0);">
    <path d="M-0.001,0l14,0c0,0-4.381,9.151-0.551,14C13.448,14-0.001,14.24-0.001,0z"/>
</g></g><g transform="translate(280,980) scale(0.07,0.07)"><g transform="" style="fill: rgb(0, 0, 0);">
<path d="M250,0c138.077,0,250,111.93,250,250c0,138.077-111.923,250-250,250C111.93,500,0,388.077,0,250C0,111.93,111.93,0,250,0z"
	/>
</g></g><g transform="translate(350,980) scale(2.5,2.5)"><g transform="" style="fill: rgb(0, 0, 0);">
    <path d="M-0.001,0l14,0c0,0-4.381,9.151-0.551,14C13.448,14-0.001,14.24-0.001,0z"/>
</g></g><g transform="translate(490,980) scale(0.07,0.07)"><g transform="" style="fill: rgb(0, 0, 0);">
<path d="M250,0c138.077,0,250,111.93,250,250c0,138.077-111.923,250-250,250C111.93,500,0,388.077,0,250C0,111.93,111.93,0,250,0z"
	/>
</g></g><g transform="translate(630,980) scale(2.5,2.5)"><g transform="" style="fill: rgb(0, 0, 0);">
    <path d="M13.999,0v14c0,0-9.151-4.381-14-0.551C-0.001,13.449-0.242,0,13.999,0z"/>
</g></g><g transform="translate(665,980) scale(0.35,0.35)"><g transform="" style="fill: rgb(0, 0, 0);">
<rect width="100" height="100"/>
</g></g><g transform="translate(700,980) scale(2.5,2.5)"><g transform="" style="fill: rgb(0, 0, 0);">
    <path d="M0,14V0c0,0,9.15,4.38,14,0.55C14,0.55,14.24,14,0,14z"/>
</g></g><g transform="translate(770,980) scale(2.5,2.5)"><g transform="" style="fill: rgb(0, 0, 0);">
    <path d="M-0.001,0l14,0c0,0-4.381,9.151-0.551,14C13.448,14-0.001,14.24-0.001,0z"/>
</g></g><g transform="translate(840,980) scale(0.07,0.07)"><g transform="" style="fill: rgb(0, 0, 0);">
<path d="M250,0c138.077,0,250,111.93,250,250c0,138.077-111.923,250-250,250C111.93,500,0,388.077,0,250C0,111.93,111.93,0,250,0z"
	/>
</g></g><g transform="translate(0,0) scale(2.45, 2.45)"><g transform="" style="fill: rgb(0, 0, 0);">
<path d="M21.475,99.992c-6.648,0-12.964-6.852-13.958-13.207L0.011-0.008l88.112,5.649c6.212,0.931,11.096,6.804,11.104,13.848
	l0.762,80.503H21.475z M85.706,85.71l-0.544-57.492c-0.005-5.029-3.495-9.233-7.931-9.898l-62.938-4.03l5.36,61.98
	c0.71,4.536,5.222,9.44,9.971,9.44H85.706z"/>
</g></g><g transform="translate(770,0) scale(2.45, 2.45)"><g transform=" translate(100, 0) scale(-1,1) " style="fill: rgb(0, 0, 0);">
<path d="M21.475,99.992c-6.648,0-12.964-6.852-13.958-13.207L0.011-0.008l88.112,5.649c6.212,0.931,11.096,6.804,11.104,13.848
	l0.762,80.503H21.475z M85.706,85.71l-0.544-57.492c-0.005-5.029-3.495-9.233-7.931-9.898l-62.938-4.03l5.36,61.98
	c0.71,4.536,5.222,9.44,9.971,9.44H85.706z"/>
</g></g><g transform="translate(0,770) scale(2.45, 2.45)"><g transform=" translate(0,100) scale(1,-1) " style="fill: rgb(0, 0, 0);">
<path d="M21.475,99.992c-6.648,0-12.964-6.852-13.958-13.207L0.011-0.008l88.112,5.649c6.212,0.931,11.096,6.804,11.104,13.848
	l0.762,80.503H21.475z M85.706,85.71l-0.544-57.492c-0.005-5.029-3.495-9.233-7.931-9.898l-62.938-4.03l5.36,61.98
	c0.71,4.536,5.222,9.44,9.971,9.44H85.706z"/>
</g></g><g transform="translate(70,70) scale(1.05, 1.05)"><g transform=" translate(0,100) scale(1,-1) " style="fill: rgb(0, 0, 0);">
<g>
</g>
<path d="M72.744-0.021H27.23c-2.341,0-4.612,0.297-6.771,0.875C15.679,2.11,11.418,4.648,8.04,8.09
	c-0.617,0.621-1.206,1.284-1.752,1.96c-3.883,4.767-6.21,10.903-6.21,17.561L0.05,99.979h72.694
	c14.971,0,27.138-12.397,27.138-27.63V27.625v-0.014l0.168-27.617C100.05-0.006,82.107-0.021,72.744-0.021z"/>
</g></g><g transform="translate(840,70) scale(1.05, 1.05)"><g transform="" style="fill: rgb(0, 0, 0);">
<g>
</g>
<path d="M72.744-0.021H27.23c-2.341,0-4.612,0.297-6.771,0.875C15.679,2.11,11.418,4.648,8.04,8.09
	c-0.617,0.621-1.206,1.284-1.752,1.96c-3.883,4.767-6.21,10.903-6.21,17.561L0.05,99.979h72.694
	c14.971,0,27.138-12.397,27.138-27.63V27.625v-0.014l0.168-27.617C100.05-0.006,82.107-0.021,72.744-0.021z"/>
</g></g><g transform="translate(70,840) scale(1.05, 1.05)"><g transform="" style="fill: rgb(0, 0, 0);">
<g>
</g>
<path d="M72.744-0.021H27.23c-2.341,0-4.612,0.297-6.771,0.875C15.679,2.11,11.418,4.648,8.04,8.09
	c-0.617,0.621-1.206,1.284-1.752,1.96c-3.883,4.767-6.21,10.903-6.21,17.561L0.05,99.979h72.694
	c14.971,0,27.138-12.397,27.138-27.63V27.625v-0.014l0.168-27.617C100.05-0.006,82.107-0.021,72.744-0.021z"/>
</g></g></g></svg>